<?xml version="1.0" encoding="UTF-8"?>
<svg width="56px" height="44px" viewBox="0 0 56 44" version="1.1" xmlns="http://www.w3.org/2000/svg" xmlns:xlink="http://www.w3.org/1999/xlink">
    <!-- Generator: Sketch 48.2 (47327) - http://www.bohemiancoding.com/sketch -->
    <title>Group</title>
    <desc>Created with Sketch.</desc>
    <defs></defs>
    <g id="Home" stroke="none" stroke-width="1" fill="none" fill-rule="evenodd" transform="translate(-116.000000, -1140.000000)">
        <g id="Group-8" transform="translate(85.000000, 1117.000000)" fill-rule="nonzero">
            <g id="Group-7" transform="translate(31.000000, 23.000000)">
                <g id="noun_381485_cc">
                    <g id="Group">
                        <path d="M18.9470909,8.10875362 L19.537,8.10875362 L19.5350909,16.6728116 C19.5350909,16.9910145 19.6642727,17.3034783 19.8901818,17.5304928 C20.1160909,17.7549565 20.4266364,17.8837681 20.7460909,17.8837681 L35.9672727,17.8837681 C36.2905455,17.8837681 36.5934545,17.7587826 36.8231818,17.5285797 C37.0516364,17.3002899 37.1763636,16.9948406 37.1763636,16.6728116 L37.1763636,8.10875362 L37.765,8.10875362 C38.1239091,8.10875362 38.4643636,7.95124638 38.6940909,7.67576812 C38.9238182,7.39837681 39.0192727,7.03744928 38.9581818,6.68289855 L38.0348182,1.48834783 C37.9317273,0.911246377 37.4270909,0.487826087 36.8416364,0.487826087 L19.8723636,0.487826087 C19.2875455,0.487826087 18.781,0.911246377 18.6798182,1.48834783 L17.7545455,6.68289855 C17.6909091,7.03744928 17.7882727,7.39837681 18.0199091,7.67576812 C18.2502727,7.95124638 18.5881818,8.10875362 18.9470909,8.10875362 Z M34.7562727,15.4573913 L21.9564545,15.4573913 L21.9564545,8.10875362 L34.7562727,8.10875362 L34.7562727,15.4573913 Z M20.8854545,2.91292754 L35.8266364,2.91292754 L36.3198182,5.68301449 L20.3916364,5.68301449 L20.8854545,2.91292754 Z" id="Shape" fill="#039CA3"></path>
                        <path d="M6.00854545,28.1772174 L6.59718182,28.1772174 L6.59718182,36.74 C6.59718182,37.0575652 6.72572727,37.3713043 6.95163636,37.5957681 C7.17690909,37.8221449 7.48872727,37.9528696 7.80818182,37.9528696 L23.0287273,37.9528696 C23.3513636,37.9528696 23.6555455,37.8253333 23.8846364,37.5957681 C24.1118182,37.3681159 24.2390909,37.0633043 24.2390909,36.74 L24.2390909,28.1772174 L24.8264545,28.1772174 C25.1847273,28.1772174 25.5245455,28.0184348 25.7542727,27.7435942 C25.9859091,27.4662029 26.0813636,27.104 26.019,26.7507246 L25.0937273,21.5548986 C24.9906364,20.9790725 24.4872727,20.5543768 23.9030909,20.5543768 L6.93381818,20.5543768 C6.34836364,20.5543768 5.84181818,20.9771594 5.74127273,21.5548986 L4.81536364,26.7507246 C4.75172727,27.104 4.84909091,27.4668406 5.08072727,27.7435942 C5.31045455,28.0184348 5.65027273,28.1772174 6.00854545,28.1772174 Z M21.8177273,35.5245797 L9.01790909,35.5245797 L9.01790909,28.1772174 L21.8177273,28.1772174 L21.8177273,35.5245797 Z M7.94690909,22.9813913 L22.8880909,22.9813913 L23.3806364,25.7502029 L7.45436364,25.7502029 L7.94690909,22.9813913 Z" id="Shape" fill="#C82B61"></path>
                        <path d="M30.7516364,21.5561739 L29.8289091,26.7507246 C29.7646364,27.1046377 29.8626364,27.4674783 30.093,27.7429565 C30.3227273,28.0190725 30.66,28.1765797 31.0189091,28.1765797 L31.6088182,28.1765797 L31.6075455,36.7387246 C31.6075455,37.0594783 31.7360909,37.3706667 31.9626364,37.5983188 C32.1872727,37.8234203 32.4997273,37.9522319 32.8179091,37.9522319 L48.0397273,37.9522319 C48.3636364,37.9522319 48.6671818,37.8266087 48.8956364,37.5957681 C49.126,37.3674783 49.2488182,37.0633043 49.2488182,36.7387246 L49.2488182,28.175942 L49.8374545,28.175942 C50.1963636,28.175942 50.5361818,28.0184348 50.7665455,27.7423188 C50.9969091,27.4668406 51.0917273,27.1046377 51.03,26.750087 L50.1053636,21.5555362 C50.0035455,20.9771594 49.4989091,20.5537391 48.9153636,20.5537391 L31.9441818,20.5537391 C31.3580909,20.5537391 30.8547273,20.9777971 30.7516364,21.5561739 Z M46.8287273,35.5245797 L34.0289091,35.5245797 L34.0289091,28.175942 L46.8287273,28.175942 L46.8287273,35.5245797 Z M32.9572727,22.9813913 L47.8997273,22.9813913 L48.3922727,25.7502029 L32.4647273,25.7502029 L32.9572727,22.9813913 Z" id="Shape" fill="#C82B61"></path>
                        <path d="M54.5707273,34.2358261 C53.9019091,34.2358261 53.3603636,34.7784928 53.3603636,35.448058 L53.3603636,41.405913 L2.64154545,41.405913 L2.64154545,35.9384348 C2.64154545,35.2682319 2.1,34.7255652 1.43181818,34.7255652 C0.763,34.7255652 0.221454545,35.2682319 0.221454545,35.9384348 L0.221454545,42.6187826 C0.221454545,42.9382609 0.351272727,43.2513623 0.575272727,43.4764638 C0.802454545,43.7022029 1.113,43.8310145 1.43181818,43.8310145 L54.5713636,43.8310145 C54.894,43.8310145 55.1969091,43.7053913 55.4272727,43.4764638 C55.6563636,43.2475362 55.7823636,42.9433623 55.7823636,42.6187826 L55.7823636,35.448058 C55.7817273,34.7784928 55.2376364,34.2358261 54.5707273,34.2358261 Z" id="Shape" fill="#01B2BB"></path>
                    </g>
                </g>
            </g>
        </g>
    </g>
</svg>