<?xml version="1.0" encoding="UTF-8"?>
<svg width="47px" height="47px" viewBox="0 0 47 47" version="1.1" xmlns="http://www.w3.org/2000/svg" xmlns:xlink="http://www.w3.org/1999/xlink">
    <!-- Generator: Sketch 48.2 (47327) - http://www.bohemiancoding.com/sketch -->
    <title>Group 5</title>
    <desc>Created with Sketch.</desc>
    <defs></defs>
    <g id="Home" stroke="none" stroke-width="1" fill="none" fill-rule="evenodd" transform="translate(-770.000000, -1140.000000)">
        <g id="Group-8-Copy" transform="translate(743.000000, 1117.000000)">
            <g id="Group-7" transform="translate(29.000000, 25.000000)">
                <g id="Group-6">
                    <g id="Group-5">
                        <circle id="Oval" stroke="#C82B61" stroke-width="3" cx="21.5" cy="21.5" r="21.5"></circle>
                        <path d="M20.6180612,24.9882653 C20.5156798,24.2511188 20.5412747,23.5754112 20.6948469,22.9611224 C20.8484191,22.3468337 21.073655,21.7837441 21.3705612,21.2718367 C21.6674675,20.7599294 22.0053212,20.2838627 22.3841327,19.8436224 C22.7629441,19.4033822 23.1212738,18.9733865 23.4591327,18.5536224 C23.7969915,18.1338584 24.0785363,17.7192197 24.3037755,17.3096939 C24.5290147,16.900168 24.6416327,16.4599343 24.6416327,15.9889796 C24.6416327,15.251833 24.4215158,14.6580295 23.9812755,14.207551 C23.5410352,13.7570726 22.9318746,13.5318367 22.1537755,13.5318367 C21.5190104,13.5318367 20.9456828,13.6751686 20.4337755,13.9618367 C19.9218682,14.2485048 19.4406825,14.6375486 18.9902041,15.1289796 L17.0244898,13.3168367 C17.6797312,12.5387376 18.4578186,11.8988631 19.3587755,11.3971939 C20.2597324,10.8955247 21.2732937,10.6446939 22.3994898,10.6446939 C23.2185415,10.6446939 23.976153,10.7521928 24.6723469,10.9671939 C25.3685409,11.182195 25.9725825,11.5046917 26.4844898,11.9346939 C26.9963971,12.364696 27.3905598,12.8970717 27.6669898,13.5318367 C27.9434197,14.1666018 28.0816327,14.9037373 28.0816327,15.7432653 C28.0816327,16.3985067 27.9638957,16.9871913 27.7284184,17.5093367 C27.492941,18.0314822 27.2011582,18.5280249 26.8530612,18.9989796 C26.5049642,19.4699343 26.1312775,19.920406 25.7319898,20.3504082 C25.3327021,20.7804103 24.9743723,21.230882 24.6569898,21.7018367 C24.3396073,22.1727915 24.0836574,22.6744531 23.8891327,23.2068367 C23.6946079,23.7392203 23.6382989,24.3330239 23.7202041,24.9882653 L20.6180612,24.9882653 Z M19.9116327,29.5646939 C19.9116327,28.8684999 20.1266305,28.2951723 20.5566327,27.8446939 C20.9866348,27.3942154 21.5292484,27.1689796 22.1844898,27.1689796 C22.8397312,27.1689796 23.3874638,27.3942154 23.8277041,27.8446939 C24.2679444,28.2951723 24.4880612,28.8684999 24.4880612,29.5646939 C24.4880612,30.2608878 24.2679444,30.8342154 23.8277041,31.2846939 C23.3874638,31.7351723 22.8397312,31.9604082 22.1844898,31.9604082 C21.5292484,31.9604082 20.9866348,31.7351723 20.5566327,31.2846939 C20.1266305,30.8342154 19.9116327,30.2608878 19.9116327,29.5646939 Z" id="?" fill="#01B2BB"></path>
                    </g>
                </g>
            </g>
        </g>
    </g>
</svg>