<svg width="56" height="44" viewBox="0 0 56 44" xmlns="http://www.w3.org/2000/svg"><g fill-rule="nonzero" fill="none"><path d="M18.947 8.109h.59l-.002 8.564c0 .318.13.63.355.857.226.225.537.354.856.354h15.221c.324 0 .626-.125.856-.355.229-.229.353-.534.353-.856V8.109h.589a1.208 1.208 0 001.193-1.426l-.923-5.195c-.103-.577-.608-1-1.193-1h-16.97c-.584 0-1.091.423-1.192 1l-.925 5.195a1.21 1.21 0 001.192 1.426zm15.81 7.348h-12.8V8.11h12.8v7.348zM20.884 2.913h14.942l.493 2.77H20.392l.493-2.77z" fill="#039CA3"/><path d="M6.009 28.177h.588v8.563a1.216 1.216 0 001.211 1.213h15.22c.323 0 .628-.128.857-.357.227-.228.354-.533.354-.856v-8.563h.587c.359 0 .699-.159.928-.433.232-.278.327-.64.265-.993l-.925-5.196c-.103-.576-.607-1-1.19-1H6.933c-.586 0-1.092.422-1.193 1l-.926 5.196a1.211 1.211 0 001.194 1.426zm15.809 7.348h-12.8v-7.348h12.8v7.348zM7.947 22.98h14.941l.493 2.77H7.454l.493-2.77zM30.752 21.556l-.923 5.195a1.21 1.21 0 001.19 1.426h.59l-.001 8.562c0 .32.128.632.355.86.224.224.537.353.855.353H48.04c.324 0 .627-.125.856-.356.23-.229.353-.533.353-.857v-8.563h.588c.36 0 .7-.158.93-.434.23-.275.325-.637.263-.992l-.925-5.194a1.213 1.213 0 00-1.19-1.002h-16.97c-.587 0-1.09.424-1.193 1.002zm16.077 13.969h-12.8v-7.35h12.8v7.35zM32.957 22.98H47.9l.492 2.77H32.465l.492-2.77z" fill="#C82B61"/><path d="M54.57 34.236c-.668 0-1.21.542-1.21 1.212v5.958H2.642v-5.468a1.211 1.211 0 10-2.42 0v6.68c0 .32.13.633.353.858.227.226.538.355.857.355h53.14c.322 0 .625-.126.855-.355.23-.228.355-.533.355-.857v-7.17c0-.67-.544-1.213-1.211-1.213z" fill="#01B2BB"/></g></svg>