<svg width="47" height="47" viewBox="0 0 47 47" xmlns="http://www.w3.org/2000/svg"><g transform="translate(2 2)" fill="none" fill-rule="evenodd"><circle stroke="#C82B61" stroke-width="3" cx="21.5" cy="21.5" r="21.5"/><path d="M20.618 24.988c-.102-.737-.077-1.413.077-2.027a6.479 6.479 0 01.676-1.69 9.463 9.463 0 011.013-1.427 51.2 51.2 0 001.075-1.29c.338-.42.62-.835.845-1.244.225-.41.338-.85.338-1.321 0-.737-.22-1.331-.66-1.781-.441-.45-1.05-.676-1.828-.676a3.46 3.46 0 00-1.72.43 5.837 5.837 0 00-1.444 1.167l-1.966-1.812a8.307 8.307 0 012.335-1.92c.9-.501 1.914-.752 3.04-.752.82 0 1.577.107 2.273.322.697.215 1.3.538 1.812.968.512.43.907.962 1.183 1.597s.415 1.372.415 2.211c0 .656-.118 1.244-.354 1.766a8.111 8.111 0 01-.875 1.49c-.348.47-.722.921-1.121 1.351-.4.43-.758.88-1.075 1.352a6.953 6.953 0 00-.768 1.505c-.194.532-.25 1.126-.169 1.781h-3.102zm-.706 4.577c0-.697.215-1.27.645-1.72.43-.45.972-.676 1.627-.676.656 0 1.203.225 1.644.676.44.45.66 1.023.66 1.72 0 .696-.22 1.27-.66 1.72-.44.45-.988.675-1.644.675-.655 0-1.197-.225-1.627-.675-.43-.45-.645-1.024-.645-1.72z" fill="#01B2BB"/></g></svg>